<?xml version="1.0" encoding="UTF-8"?>
<svg version="1.1" id="圖層_1" xmlns="http://www.w3.org/2000/svg" x="0" y="0" viewBox="0 0 100 100" xml:space="preserve"><path d="M57.905 14.763h26.857a3.013 3.013 0 0 1 3.013 3.013v55.715a3.013 3.013 0 0 1-3.013 3.013h-23.76c-5.772.057-8.838 3.064-10.836 8.745V19.108c1.611-3.176 4.256-4.508 7.739-4.345z" fill="#e0e0e0" stroke="#333" stroke-width="4.38" stroke-linecap="round" stroke-linejoin="round" stroke-miterlimit="10"/><path d="M42.095 14.763H15.238a3.013 3.013 0 0 0-3.013 3.013v55.715a3.013 3.013 0 0 0 3.013 3.013h23.76c5.772.057 8.838 3.064 10.836 8.745V19.108c-1.611-3.176-4.256-4.508-7.739-4.345z" fill="#e0e0e0" stroke="#333" stroke-width="4.38" stroke-linecap="round" stroke-linejoin="round" stroke-miterlimit="10"/><circle cx="50" cy="47" r="18.5" fill="#fff" stroke="#333" stroke-width="4.779" stroke-linecap="round" stroke-linejoin="round" stroke-miterlimit="10"/><path d="M59.502 44.185h-5.989a.136.136 0 0 1-.119-.203l.158-.284 1.857-3.343a.247.247 0 0 1 .216-.127h3.877a.25.25 0 0 0 .222-.363 5.24 5.24 0 0 0-.987-1.353A5.188 5.188 0 0 0 55.073 37a5.207 5.207 0 0 0-5.207 5.206c0 .442.061.869.165 1.279l-5.92 5.92-3.345 3.345a1.764 1.764 0 0 0 0 2.495l.619.619.619.619a1.764 1.764 0 0 0 2.495 0l2.879-2.879 6.369-6.369c.425.112.868.177 1.328.177a5.208 5.208 0 0 0 4.651-2.865.251.251 0 0 0-.224-.362z" fill="#333"/><metadata xmlns:d="https://loading.io/stock/">
<d:name>manual</d:name>
<d:tags>documentation,instruction,operation,workbook,manual,books</d:tags>
<d:license>by</d:license>
<d:slug>setyf2</d:slug>
</metadata></svg>